<svg width="23" height="22" viewBox="0 0 23 22" fill="none" xmlns="http://www.w3.org/2000/svg">
<path d="M10.0207 7.04736L13.4143 7.04736" stroke="#4C57FF" stroke-width="1.46107" stroke-linecap="round" stroke-linejoin="round"/>
<path d="M13.4199 7.12039C15.1474 8.32073 18.1227 11.8204 18.1227 14.4189C18.1227 17.0496 17.0207 19.1819 11.6917 19.1819C6.36267 19.1819 5.26074 17.0496 5.26074 14.4189C5.26074 11.8204 8.23596 8.32073 9.96348 7.12039C9.53331 6.29959 7.10518 5.01528 7.43594 3.99542C7.93454 2.45808 15.4072 2.39356 15.9421 3.99367C16.2823 5.01161 13.8489 6.30136 13.4199 7.12039Z" stroke="#4C57FF" stroke-width="1.46107" stroke-linecap="round" stroke-linejoin="round"/>
<path d="M11.6535 10.7054V9.65674" stroke="#4C57FF" stroke-width="1.46107" stroke-linecap="round" stroke-linejoin="round"/>
<path d="M13.3913 10.7043H10.8387C10.5908 10.7043 10.3531 10.803 10.1779 10.9787C10.0026 11.1544 9.90414 11.3927 9.90414 11.6411C9.90268 11.8281 9.95791 12.0111 10.0625 12.1659C10.1671 12.3207 10.3162 12.44 10.49 12.508L12.8054 13.0883C13.0099 13.1674 13.1802 13.3161 13.2864 13.5083C13.3926 13.7005 13.4281 13.924 13.3865 14.1398C13.345 14.3555 13.2291 14.5498 13.0591 14.6885C12.8891 14.8273 12.6759 14.9018 12.4567 14.8989H9.90414" stroke="#4C57FF" stroke-width="1.46107" stroke-linecap="round" stroke-linejoin="round"/>
<path d="M11.6461 15.9478V14.8992" stroke="#4C57FF" stroke-width="1.46107" stroke-linecap="round" stroke-linejoin="round"/>
</svg>
